<svg width="360" height="360" viewBox="0 0 94 10" fill="none" xmlns="http://www.w3.org/2000/svg">
<path d="M3.89844 1.06641C4.28906 1.08984 4.61719 1.10938 4.88281 1.125C5.15625 1.13281 5.38281 1.14062 5.5625 1.14844C5.76562 1.15625 5.9375 1.15625 6.07812 1.14844C6.21875 1.14062 6.41016 1.12109 6.65234 1.08984C6.85547 1.06641 7.125 1.03125 7.46094 0.984375C7.80469 0.929688 8.23047 0.859375 8.73828 0.773438C8.55859 0.953125 8.41797 1.11719 8.31641 1.26562C8.22266 1.40625 8.14844 1.52734 8.09375 1.62891C8.03125 1.75391 7.98828 1.85938 7.96484 1.94531C7.94922 2.02344 7.96484 2.21875 8.01172 2.53125C8.05859 2.84375 8.125 3.21484 8.21094 3.64453C8.29688 4.06641 8.39062 4.51953 8.49219 5.00391C8.59375 5.48047 8.69531 5.92969 8.79688 6.35156C8.89844 6.76562 8.98828 7.12109 9.06641 7.41797C9.15234 7.70703 9.21484 7.87891 9.25391 7.93359C9.37109 8.09766 9.44531 8.20703 9.47656 8.26172C9.50781 8.30859 9.5625 8.35156 9.64062 8.39062C9.67188 8.40625 9.72266 8.42969 9.79297 8.46094C9.85547 8.49219 9.9375 8.53125 10.0391 8.57812C10.1484 8.625 10.2852 8.67969 10.4492 8.74219C10.1445 8.75781 9.88281 8.76953 9.66406 8.77734C9.44531 8.77734 9.26562 8.78125 9.125 8.78906C8.96094 8.79688 8.82031 8.80469 8.70312 8.8125C8.58594 8.8125 8.44531 8.82031 8.28125 8.83594C8.14062 8.85156 7.95703 8.86719 7.73047 8.88281C7.51172 8.89844 7.25391 8.91406 6.95703 8.92969C7.11328 8.82031 7.23828 8.72266 7.33203 8.63672C7.43359 8.54297 7.51172 8.46484 7.56641 8.40234C7.62891 8.32422 7.67188 8.25391 7.69531 8.19141C7.71094 8.12109 7.72266 8.01562 7.73047 7.875C7.73828 7.75 7.73828 7.58594 7.73047 7.38281C7.72266 7.17188 7.70312 6.89844 7.67188 6.5625L4.58984 6.87891C4.51172 7.01172 4.45312 7.12891 4.41406 7.23047C4.375 7.32422 4.34766 7.40625 4.33203 7.47656C4.30859 7.5625 4.30078 7.63281 4.30859 7.6875C4.32422 7.75 4.35156 7.82422 4.39062 7.91016C4.42969 7.98828 4.48438 8.08203 4.55469 8.19141C4.63281 8.29297 4.74609 8.41406 4.89453 8.55469C4.69922 8.54688 4.5 8.54297 4.29688 8.54297C4.09375 8.54297 3.90625 8.54688 3.73438 8.55469C3.53125 8.5625 3.33203 8.57031 3.13672 8.57812C2.94141 8.58594 2.71875 8.59766 2.46875 8.61328C2.25781 8.62891 2.01172 8.64844 1.73047 8.67188C1.44141 8.6875 1.13281 8.71094 0.804688 8.74219C1.00781 8.64844 1.17969 8.55469 1.32031 8.46094C1.46094 8.35938 1.57812 8.26562 1.67188 8.17969C1.78125 8.08594 1.875 7.99609 1.95312 7.91016C2.00781 7.83203 2.11719 7.65234 2.28125 7.37109C2.44531 7.08203 2.62891 6.74219 2.83203 6.35156C3.04297 5.96094 3.26172 5.54297 3.48828 5.09766C3.72266 4.65234 3.93359 4.23438 4.12109 3.84375C4.30859 3.44531 4.46094 3.10156 4.57812 2.8125C4.69531 2.52344 4.75391 2.33594 4.75391 2.25C4.73828 2.14844 4.69922 2.03516 4.63672 1.91016C4.58203 1.80078 4.49609 1.67578 4.37891 1.53516C4.26953 1.39453 4.10938 1.23828 3.89844 1.06641ZM7.53125 5.69531C7.48438 5.42188 7.44141 5.1875 7.40234 4.99219C7.36328 4.78906 7.33203 4.62109 7.30859 4.48828C7.27734 4.33203 7.25391 4.19531 7.23828 4.07812C7.21484 3.96875 7.1875 3.82812 7.15625 3.65625C7.125 3.50781 7.08594 3.32422 7.03906 3.10547C7 2.87891 6.94922 2.60938 6.88672 2.29688C6.44141 3.1875 6.09375 3.87891 5.84375 4.37109C5.60156 4.85547 5.42578 5.21094 5.31641 5.4375C5.18359 5.70312 5.10938 5.85938 5.09375 5.90625L7.53125 5.69531ZM10.0742 0.914062C10.543 0.953125 10.9531 0.976563 11.3047 0.984375C11.6641 0.992187 11.9688 0.996094 12.2188 0.996094C12.5078 0.996094 12.7578 0.988281 12.9688 0.972656C13.1875 0.949219 13.4727 0.917969 13.8242 0.878906C14.1211 0.839844 14.5039 0.789063 14.9727 0.726562C15.4414 0.65625 16.0117 0.566406 16.6836 0.457031C16.5977 0.589844 16.5234 0.730469 16.4609 0.878906C16.4062 1.01953 16.3594 1.14844 16.3203 1.26562C16.2812 1.40625 16.2461 1.54297 16.2148 1.67578C16.1914 1.82422 16.1641 2.00781 16.1328 2.22656C16.1016 2.41406 16.0625 2.65234 16.0156 2.94141C15.9766 3.22266 15.9258 3.55859 15.8633 3.94922C15.6289 3.33984 15.3906 2.87109 15.1484 2.54297C14.9141 2.21484 14.6953 1.97266 14.4922 1.81641C14.2578 1.63672 14.0352 1.53516 13.8242 1.51172C13.5195 1.51172 13.2695 1.57031 13.0742 1.6875C12.8789 1.80469 12.7188 1.95703 12.5938 2.14453C12.4766 2.32422 12.3867 2.52344 12.3242 2.74219C12.2617 2.95312 12.2188 3.16016 12.1953 3.36328C12.1719 3.55859 12.1562 3.73438 12.1484 3.89062C12.1406 4.03906 12.1328 4.14062 12.125 4.19531C12.3984 4.17969 12.6289 4.16016 12.8164 4.13672C13.0039 4.11328 13.1523 4.08984 13.2617 4.06641C13.3945 4.03516 13.5 4.00391 13.5781 3.97266C13.6953 3.91016 13.8125 3.83594 13.9297 3.75C14.0312 3.67188 14.1367 3.57812 14.2461 3.46875C14.3633 3.35938 14.4648 3.22656 14.5508 3.07031C14.5039 3.35156 14.4609 3.58594 14.4219 3.77344C14.3906 3.96094 14.3633 4.10938 14.3398 4.21875C14.3086 4.35156 14.2891 4.45312 14.2812 4.52344C14.2656 4.59375 14.2461 4.69141 14.2227 4.81641C14.1992 4.92578 14.1719 5.06641 14.1406 5.23828C14.1094 5.41016 14.0742 5.625 14.0352 5.88281C13.9414 5.71875 13.8438 5.58594 13.7422 5.48438C13.6406 5.375 13.5469 5.28906 13.4609 5.22656C13.3594 5.15625 13.2617 5.10156 13.168 5.0625C13.0664 5.03125 12.957 5 12.8398 4.96875C12.7383 4.94531 12.6172 4.92188 12.4766 4.89844C12.3438 4.86719 12.1992 4.83984 12.043 4.81641C12.0586 5.23828 12.082 5.60156 12.1133 5.90625C12.1445 6.20312 12.1719 6.45312 12.1953 6.65625C12.2266 6.89062 12.2578 7.08594 12.2891 7.24219C12.3281 7.39844 12.3906 7.56641 12.4766 7.74609C12.5469 7.90234 12.6445 8.08203 12.7695 8.28516C12.9023 8.48047 13.0703 8.69141 13.2734 8.91797C13.1172 8.87891 12.9531 8.85156 12.7812 8.83594C12.6094 8.82031 12.457 8.80859 12.3242 8.80078C12.1602 8.79297 12.0039 8.79297 11.8555 8.80078C11.6992 8.80859 11.5273 8.82422 11.3398 8.84766C11.1836 8.86328 11.0039 8.88672 10.8008 8.91797C10.5977 8.94922 10.3828 8.98438 10.1562 9.02344C10.2891 8.89062 10.3984 8.75781 10.4844 8.625C10.5703 8.49219 10.6328 8.375 10.6719 8.27344C10.7188 8.15625 10.75 8.04297 10.7656 7.93359C10.7734 7.83984 10.7773 7.63672 10.7773 7.32422C10.7773 7.00391 10.7734 6.63281 10.7656 6.21094C10.7578 5.78125 10.7461 5.32812 10.7305 4.85156C10.7148 4.375 10.6992 3.92969 10.6836 3.51562C10.668 3.09375 10.6484 2.73438 10.625 2.4375C10.6094 2.14062 10.5898 1.96094 10.5664 1.89844C10.5352 1.82031 10.5 1.73047 10.4609 1.62891C10.3984 1.46484 10.2695 1.22656 10.0742 0.914062ZM15.6055 0.445312C15.8555 0.484375 16.082 0.519531 16.2852 0.550781C16.4883 0.574219 16.6641 0.59375 16.8125 0.609375C16.9844 0.632812 17.1367 0.652344 17.2695 0.667969C17.4336 0.691406 17.6797 0.664062 18.0078 0.585938C18.3359 0.5 18.6953 0.421875 19.0859 0.351562C19.4844 0.273438 19.8906 0.230469 20.3047 0.222656C20.7188 0.207031 21.0977 0.28125 21.4414 0.445312C21.7852 0.609375 22.0664 0.773438 22.2852 0.9375C22.5039 1.10156 22.6758 1.27734 22.8008 1.46484C22.9336 1.64453 23.0273 1.83594 23.082 2.03906C23.1367 2.24219 23.168 2.46484 23.1758 2.70703C23.168 3.06641 23.082 3.41406 22.918 3.75C22.8477 3.89062 22.7539 4.03906 22.6367 4.19531C22.5273 4.34375 22.3906 4.48828 22.2266 4.62891C22.0625 4.76953 21.8672 4.90234 21.6406 5.02734C21.4219 5.15234 21.1641 5.26172 20.8672 5.35547C21.1562 5.44141 21.3945 5.54297 21.582 5.66016C21.7773 5.77734 21.9336 5.88672 22.0508 5.98828C22.1914 6.11328 22.2969 6.23438 22.3672 6.35156C22.4531 6.51562 22.5117 6.65625 22.543 6.77344C22.5742 6.89062 22.5938 7.00391 22.6016 7.11328C22.6172 7.21484 22.6367 7.32031 22.6602 7.42969C22.6836 7.53906 22.7344 7.66406 22.8125 7.80469C22.875 7.91406 22.9492 8.02734 23.0352 8.14453C23.1133 8.24609 23.2031 8.35547 23.3047 8.47266C23.4141 8.58984 23.5469 8.70312 23.7031 8.8125C23.4844 8.82031 23.2812 8.82422 23.0938 8.82422C22.9141 8.82422 22.7578 8.82422 22.625 8.82422C22.4688 8.82422 22.3203 8.82031 22.1797 8.8125C22.0391 8.80469 21.8633 8.80078 21.6523 8.80078C21.4727 8.80078 21.2422 8.80078 20.9609 8.80078C20.6875 8.80078 20.3555 8.80469 19.9648 8.8125C20.1367 8.67969 20.2773 8.54688 20.3867 8.41406C20.4961 8.28125 20.582 8.16016 20.6445 8.05078C20.7148 7.92578 20.7656 7.80469 20.7969 7.6875C20.8359 7.47656 20.8398 7.25781 20.8086 7.03125C20.7852 6.83594 20.7227 6.62109 20.6211 6.38672C20.5195 6.14453 20.3555 5.90234 20.1289 5.66016C19.9023 5.69922 19.7109 5.73047 19.5547 5.75391C19.4062 5.76953 19.2773 5.78516 19.168 5.80078C19.043 5.81641 18.9414 5.82812 18.8633 5.83594C18.793 5.84375 18.7148 5.85156 18.6289 5.85938C18.5586 5.86719 18.4805 5.87891 18.3945 5.89453C18.3164 5.90234 18.2422 5.91406 18.1719 5.92969C18.1562 6.26562 18.1562 6.55859 18.1719 6.80859C18.1875 7.05078 18.207 7.25391 18.2305 7.41797C18.2617 7.61328 18.2969 7.78125 18.3359 7.92188C18.375 8.0625 18.4297 8.19922 18.5 8.33203C18.5547 8.44141 18.625 8.55859 18.7109 8.68359C18.7969 8.80078 18.8945 8.89844 19.0039 8.97656C18.8008 8.97656 18.6055 8.97656 18.418 8.97656C18.2383 8.97656 18.0742 8.97266 17.9258 8.96484C17.7539 8.96484 17.5898 8.96094 17.4336 8.95312C17.2773 8.94531 17.1016 8.94141 16.9062 8.94141C16.7422 8.94141 16.5469 8.94141 16.3203 8.94141C16.1016 8.94141 15.8633 8.94531 15.6055 8.95312C15.8086 8.74219 15.9688 8.5625 16.0859 8.41406C16.2031 8.26562 16.293 8.14062 16.3555 8.03906C16.4258 7.92969 16.4688 7.83594 16.4844 7.75781C16.5 7.63281 16.5117 7.41016 16.5195 7.08984C16.5352 6.76172 16.5469 6.38672 16.5547 5.96484C16.5625 5.54297 16.5664 5.10156 16.5664 4.64062C16.5664 4.17969 16.5625 3.75 16.5547 3.35156C16.5469 2.94531 16.5391 2.59766 16.5312 2.30859C16.5234 2.01953 16.5156 1.83594 16.5078 1.75781C16.4844 1.61719 16.4336 1.47656 16.3555 1.33594C16.293 1.21094 16.2031 1.07031 16.0859 0.914062C15.9688 0.757812 15.8086 0.601563 15.6055 0.445312ZM20.0352 4.57031C20.1133 4.52344 20.1797 4.47656 20.2344 4.42969C20.2891 4.38281 20.3359 4.30859 20.375 4.20703C20.4141 4.09766 20.4453 3.94531 20.4688 3.75C20.5 3.55469 20.5352 3.28906 20.5742 2.95312C20.6055 2.61719 20.582 2.33984 20.5039 2.12109C20.4336 1.90234 20.3359 1.73047 20.2109 1.60547C20.0938 1.47266 19.9609 1.38281 19.8125 1.33594C19.6719 1.28125 19.5469 1.25391 19.4375 1.25391C19.2188 1.25391 19.0039 1.32031 18.793 1.45312C18.582 1.58594 18.4219 1.76562 18.3125 1.99219C18.2734 2.09375 18.2383 2.26172 18.207 2.49609C18.1836 2.69922 18.168 2.98047 18.1602 3.33984C18.1523 3.69922 18.1641 4.17188 18.1953 4.75781C18.4922 4.80469 18.7539 4.82422 18.9805 4.81641C19.207 4.80078 19.3984 4.77344 19.5547 4.73438C19.7422 4.69531 19.9023 4.64062 20.0352 4.57031ZM23.5859 0.925781C23.8516 0.957031 24.0742 0.980469 24.2539 0.996094C24.4414 1.00391 24.5938 1.01562 24.7109 1.03125C24.8516 1.04688 24.9609 1.05469 25.0391 1.05469C25.125 1.0625 25.2539 1.05859 25.4258 1.04297C25.5742 1.02734 25.7734 1.00781 26.0234 0.984375C26.2812 0.960938 26.6094 0.925781 27.0078 0.878906C26.8281 1.03516 26.6836 1.1875 26.5742 1.33594C26.4727 1.47656 26.3945 1.60156 26.3398 1.71094C26.2695 1.84375 26.2266 1.96875 26.2109 2.08594C26.1797 2.27344 26.1523 2.53125 26.1289 2.85938C26.1133 3.17969 26.0977 3.53125 26.082 3.91406C26.0664 4.29688 26.0586 4.69141 26.0586 5.09766C26.0586 5.50391 26.0625 5.89062 26.0703 6.25781C26.0859 6.61719 26.1094 6.9375 26.1406 7.21875C26.1797 7.5 26.2266 7.70312 26.2812 7.82812C26.3594 7.96875 26.4414 8.10938 26.5273 8.25C26.6055 8.36719 26.6992 8.48828 26.8086 8.61328C26.918 8.73828 27.043 8.83984 27.1836 8.91797C26.7227 8.89453 26.3555 8.88281 26.082 8.88281H25.6602C25.5352 8.88281 25.375 8.89062 25.1797 8.90625C25.0156 8.92188 24.8086 8.9375 24.5586 8.95312C24.3086 8.96875 24.0078 8.99219 23.6562 9.02344C23.8359 8.82812 23.9766 8.64062 24.0781 8.46094C24.1797 8.28125 24.2617 8.125 24.3242 7.99219C24.3945 7.83594 24.4414 7.6875 24.4648 7.54688C24.4961 7.34375 24.5195 7.09375 24.5352 6.79688C24.5586 6.49219 24.5742 6.16797 24.582 5.82422C24.5898 5.47266 24.5898 5.11719 24.582 4.75781C24.582 4.39062 24.5742 4.03906 24.5586 3.70312C24.543 3.36719 24.5195 3.0625 24.4883 2.78906C24.4648 2.51562 24.4336 2.29688 24.3945 2.13281C24.3711 2.03125 24.3242 1.91797 24.2539 1.79297C24.1914 1.68359 24.1055 1.55859 23.9961 1.41797C23.8945 1.26953 23.7578 1.10547 23.5859 0.925781ZM29.4688 0.972656C29.6406 0.878906 29.8359 0.796875 30.0547 0.726562C30.2734 0.648438 30.5 0.589844 30.7344 0.550781C30.9688 0.503906 31.2031 0.476562 31.4375 0.46875C31.6797 0.460938 31.9062 0.480469 32.1172 0.527344C32.7344 0.660156 33.2539 0.914062 33.6758 1.28906C34.0977 1.66406 34.4219 2.10156 34.6484 2.60156C34.8828 3.10156 35.0195 3.64062 35.0586 4.21875C35.1055 4.78906 35.0586 5.33984 34.918 5.87109C34.8711 6.02734 34.793 6.20703 34.6836 6.41016C34.5898 6.58203 34.4609 6.79297 34.2969 7.04297C34.1328 7.28516 33.918 7.55469 33.6523 7.85156C33.7148 7.99219 33.7773 8.10547 33.8398 8.19141C33.9102 8.26953 33.9766 8.32812 34.0391 8.36719C34.1094 8.41406 34.1758 8.44531 34.2383 8.46094C34.3008 8.46875 34.375 8.47266 34.4609 8.47266C34.5312 8.47266 34.6133 8.46875 34.707 8.46094C34.8086 8.44531 34.918 8.42188 35.0352 8.39062L33.207 9.91406C33.1836 9.78906 33.1562 9.67969 33.125 9.58594C33.1016 9.5 33.082 9.42578 33.0664 9.36328L32.9961 9.1875C32.9648 9.14844 32.9336 9.09766 32.9023 9.03516C32.8711 8.98828 32.8359 8.92969 32.7969 8.85938C32.7578 8.78906 32.707 8.71094 32.6445 8.625C32.1523 8.8125 31.7031 8.93359 31.2969 8.98828C30.8984 9.04297 30.5352 9.04688 30.207 9C29.8789 8.96094 29.5859 8.88672 29.3281 8.77734C29.0703 8.66016 28.8438 8.52734 28.6484 8.37891C28.1953 8.02734 27.8398 7.56641 27.582 6.99609C27.293 6.21484 27.1602 5.5 27.1836 4.85156C27.2148 4.19531 27.3398 3.61328 27.5586 3.10547C27.7773 2.58984 28.0586 2.15234 28.4023 1.79297C28.7539 1.43359 29.1094 1.16016 29.4688 0.972656ZM31.2031 6.92578C31.0859 6.89453 30.9766 6.88281 30.875 6.89062C30.7891 6.89844 30.7031 6.92578 30.6172 6.97266C30.5312 7.01953 30.4688 7.10547 30.4297 7.23047C30.5312 7.33203 30.625 7.41797 30.7109 7.48828C30.8047 7.55078 30.8828 7.60156 30.9453 7.64062C31.0234 7.6875 31.0938 7.72656 31.1562 7.75781C31.2656 7.79688 31.375 7.82812 31.4844 7.85156C31.5781 7.86719 31.6797 7.875 31.7891 7.875C31.9062 7.86719 32.0156 7.83594 32.1172 7.78125C32.0391 7.61719 31.9453 7.48047 31.8359 7.37109C31.7344 7.25391 31.6367 7.16406 31.543 7.10156C31.4336 7.02344 31.3203 6.96484 31.2031 6.92578ZM29.9609 6.50391C30.0938 6.30078 30.2383 6.15625 30.3945 6.07031C30.5508 5.98438 30.6992 5.92188 30.8398 5.88281C31.0039 5.85156 31.1719 5.83984 31.3438 5.84766C31.5078 5.88672 31.6719 5.95312 31.8359 6.04688C31.9766 6.13281 32.125 6.25391 32.2812 6.41016C32.4375 6.55859 32.582 6.76172 32.7148 7.01953C32.8398 6.83203 32.9336 6.63672 32.9961 6.43359C33.0586 6.23047 33.1055 6.04688 33.1367 5.88281C33.168 5.6875 33.1836 5.49609 33.1836 5.30859C33.168 5.01953 33.1367 4.71484 33.0898 4.39453C33.043 4.07422 32.9727 3.75781 32.8789 3.44531C32.793 3.13281 32.6836 2.83594 32.5508 2.55469C32.418 2.27344 32.2578 2.03125 32.0703 1.82812C31.8906 1.625 31.6797 1.47266 31.4375 1.37109C31.2031 1.26953 30.9375 1.24219 30.6406 1.28906C30.3125 1.33594 30.043 1.46875 29.832 1.6875C29.6289 1.90625 29.4688 2.16406 29.3516 2.46094C29.2422 2.75 29.1719 3.0625 29.1406 3.39844C29.1172 3.72656 29.1211 4.02344 29.1523 4.28906C29.1758 4.50781 29.2227 4.73828 29.293 4.98047C29.3555 5.18359 29.4375 5.41797 29.5391 5.68359C29.6406 5.94922 29.7812 6.22266 29.9609 6.50391ZM35.3281 0.761719C35.5625 0.808594 35.7617 0.84375 35.9258 0.867188C36.0898 0.890625 36.2266 0.910156 36.3359 0.925781C36.4609 0.941406 36.5664 0.949219 36.6523 0.949219C36.7383 0.949219 36.8555 0.945312 37.0039 0.9375C37.1367 0.929688 37.3047 0.925781 37.5078 0.925781C37.7109 0.917969 37.9688 0.90625 38.2812 0.890625C38.1016 1.01562 37.957 1.12109 37.8477 1.20703C37.7383 1.29297 37.6562 1.36719 37.6016 1.42969C37.5312 1.5 37.4883 1.55859 37.4727 1.60547C37.457 1.63672 37.4414 1.75391 37.4258 1.95703C37.4102 2.15234 37.3945 2.40234 37.3789 2.70703C37.3711 3.00391 37.3711 3.33984 37.3789 3.71484C37.3867 4.08203 37.4062 4.45703 37.4375 4.83984C37.4766 5.22266 37.5312 5.59375 37.6016 5.95312C37.6719 6.30469 37.7656 6.61328 37.8828 6.87891C38.0078 7.14453 38.1562 7.35156 38.3281 7.5C38.5078 7.64844 38.7227 7.70312 38.9727 7.66406C39.3008 7.61719 39.5664 7.45703 39.7695 7.18359C39.9727 6.91016 40.125 6.57812 40.2266 6.1875C40.3359 5.79688 40.4023 5.37891 40.4258 4.93359C40.457 4.48047 40.4609 4.05859 40.4375 3.66797C40.4219 3.26953 40.3906 2.92578 40.3438 2.63672C40.2969 2.34766 40.2539 2.16797 40.2148 2.09766C40.168 2.01953 40.1055 1.92969 40.0273 1.82812C39.9648 1.74219 39.8828 1.64453 39.7812 1.53516C39.6797 1.41797 39.5625 1.29297 39.4297 1.16016C39.6719 1.16797 39.8906 1.17578 40.0859 1.18359C40.2812 1.18359 40.4453 1.1875 40.5781 1.19531C40.7344 1.20312 40.875 1.21094 41 1.21875C41.125 1.22656 41.2812 1.23828 41.4688 1.25391C41.625 1.26953 41.8242 1.28516 42.0664 1.30078C42.3164 1.31641 42.6133 1.33984 42.957 1.37109C42.8242 1.40234 42.7148 1.44531 42.6289 1.5C42.5508 1.55469 42.4883 1.61328 42.4414 1.67578C42.3867 1.74609 42.3477 1.81641 42.3242 1.88672C42.3008 1.94922 42.2812 2.13672 42.2656 2.44922C42.2578 2.75391 42.2422 3.125 42.2188 3.5625C42.2031 3.99219 42.1758 4.46094 42.1367 4.96875C42.0977 5.46875 42.0352 5.94531 41.9492 6.39844C41.8711 6.85156 41.7656 7.25391 41.6328 7.60547C41.5078 7.95703 41.3438 8.19922 41.1406 8.33203C40.8438 8.52734 40.5312 8.66797 40.2031 8.75391C39.875 8.83203 39.543 8.875 39.207 8.88281C38.8711 8.88281 38.5391 8.85547 38.2109 8.80078C37.8906 8.73828 37.582 8.66406 37.2852 8.57812C36.9805 8.48438 36.7266 8.27344 36.5234 7.94531C36.3281 7.61719 36.1719 7.23047 36.0547 6.78516C35.9453 6.33203 35.8633 5.84766 35.8086 5.33203C35.7617 4.80859 35.7305 4.30469 35.7148 3.82031C35.707 3.33594 35.707 2.89844 35.7148 2.50781C35.7305 2.10938 35.7422 1.80859 35.75 1.60547C35.75 1.50391 35.7344 1.40625 35.7031 1.3125C35.6797 1.22656 35.6367 1.13672 35.5742 1.04297C35.5195 0.941406 35.4375 0.847656 35.3281 0.761719ZM42.2891 0.996094C42.8359 1.01172 43.2891 1.02344 43.6484 1.03125C44.0156 1.03125 44.3125 1.03125 44.5391 1.03125H45.1602H48.6523C48.668 1.1875 48.6797 1.33984 48.6875 1.48828C48.7031 1.62891 48.7109 1.75391 48.7109 1.86328C48.7109 1.99609 48.707 2.11719 48.6992 2.22656C48.6914 2.33594 48.6797 2.45312 48.6641 2.57812C48.6484 2.6875 48.6328 2.80469 48.6172 2.92969C48.6016 3.05469 48.5742 3.18359 48.5352 3.31641C48.4258 2.89453 48.2773 2.57422 48.0898 2.35547C47.9102 2.13672 47.7266 1.97656 47.5391 1.875C47.3203 1.75781 47.0898 1.69531 46.8477 1.6875C46.5273 1.70312 46.2773 1.73047 46.0977 1.76953C45.918 1.80859 45.7773 1.86328 45.6758 1.93359C45.5742 2.00391 45.4961 2.08594 45.4414 2.17969C45.3945 2.26562 45.3438 2.36328 45.2891 2.47266C45.2422 2.56641 45.1992 2.71094 45.1602 2.90625C45.1211 3.07031 45.082 3.29297 45.043 3.57422C45.0117 3.85547 44.9766 4.21875 44.9375 4.66406C45.1484 4.60156 45.3164 4.54297 45.4414 4.48828C45.5742 4.43359 45.6797 4.38672 45.7578 4.34766C45.8438 4.30078 45.9062 4.25781 45.9453 4.21875C45.9766 4.17188 46.0234 4.08594 46.0859 3.96094C46.1328 3.85156 46.1953 3.70312 46.2734 3.51562C46.3594 3.32812 46.4609 3.07031 46.5781 2.74219C46.5938 3.10156 46.6016 3.40234 46.6016 3.64453C46.6016 3.87891 46.6055 4.07031 46.6133 4.21875C46.6133 4.39062 46.6172 4.52734 46.625 4.62891V5.07422C46.625 5.23828 46.625 5.46094 46.625 5.74219C46.6328 6.01562 46.6445 6.36328 46.6602 6.78516C46.5664 6.49609 46.4805 6.26953 46.4023 6.10547C46.332 5.93359 46.2695 5.80469 46.2148 5.71875C46.1523 5.61719 46.0977 5.54688 46.0508 5.50781C45.9961 5.49219 45.9219 5.47656 45.8281 5.46094C45.7422 5.45312 45.6328 5.44922 45.5 5.44922C45.375 5.44922 45.2148 5.46875 45.0195 5.50781C44.9961 5.9375 44.9922 6.28516 45.0078 6.55078C45.0312 6.80859 45.0625 7.00781 45.1016 7.14844C45.1406 7.3125 45.1875 7.42969 45.2422 7.5C45.3125 7.57031 45.4531 7.62891 45.6641 7.67578C45.875 7.71484 46.1133 7.73047 46.3789 7.72266C46.6523 7.70703 46.9297 7.66016 47.2109 7.58203C47.4922 7.50391 47.7422 7.375 47.9609 7.19531C48.125 7.04688 48.3008 6.85938 48.4883 6.63281C48.6445 6.4375 48.8164 6.19141 49.0039 5.89453C49.1992 5.59766 49.3906 5.23828 49.5781 4.81641C49.5469 5.16797 49.5234 5.46094 49.5078 5.69531C49.5 5.92188 49.4883 6.10547 49.4727 6.24609C49.457 6.41016 49.4453 6.53516 49.4375 6.62109C49.4375 6.71484 49.4258 6.84766 49.4023 7.01953C49.3867 7.16797 49.3594 7.37109 49.3203 7.62891C49.2891 7.87891 49.2461 8.19922 49.1914 8.58984C48.8242 8.59766 48.4766 8.60547 48.1484 8.61328C47.8203 8.61328 47.5312 8.61719 47.2812 8.625C46.9844 8.63281 46.7109 8.64062 46.4609 8.64844C46.2031 8.64844 45.918 8.66016 45.6055 8.68359C45.332 8.69922 45.0078 8.72266 44.6328 8.75391C44.2656 8.78516 43.8594 8.82812 43.4141 8.88281C43.4531 8.35156 43.4805 7.85156 43.4961 7.38281C43.5195 6.90625 43.5352 6.48828 43.543 6.12891C43.5508 5.70703 43.5508 5.31641 43.543 4.95703C43.582 4.05859 43.5664 3.33203 43.4961 2.77734C43.4258 2.22266 43.3438 1.86719 43.25 1.71094C43.2031 1.65625 43.1367 1.58984 43.0508 1.51172C42.9805 1.44922 42.8828 1.375 42.7578 1.28906C42.6328 1.20312 42.4766 1.10547 42.2891 0.996094ZM55.6836 1.06641C56.0742 1.08984 56.4023 1.10938 56.668 1.125C56.9414 1.13281 57.168 1.14062 57.3477 1.14844C57.5508 1.15625 57.7227 1.15625 57.8633 1.14844C58.0039 1.14062 58.1953 1.12109 58.4375 1.08984C58.6406 1.06641 58.9102 1.03125 59.2461 0.984375C59.5898 0.929688 60.0156 0.859375 60.5234 0.773438C60.3438 0.953125 60.2031 1.11719 60.1016 1.26562C60.0078 1.40625 59.9336 1.52734 59.8789 1.62891C59.8164 1.75391 59.7734 1.85938 59.75 1.94531C59.7344 2.02344 59.75 2.21875 59.7969 2.53125C59.8438 2.84375 59.9102 3.21484 59.9961 3.64453C60.082 4.06641 60.1758 4.51953 60.2773 5.00391C60.3789 5.48047 60.4805 5.92969 60.582 6.35156C60.6836 6.76562 60.7734 7.12109 60.8516 7.41797C60.9375 7.70703 61 7.87891 61.0391 7.93359C61.1562 8.09766 61.2305 8.20703 61.2617 8.26172C61.293 8.30859 61.3477 8.35156 61.4258 8.39062C61.457 8.40625 61.5078 8.42969 61.5781 8.46094C61.6406 8.49219 61.7227 8.53125 61.8242 8.57812C61.9336 8.625 62.0703 8.67969 62.2344 8.74219C61.9297 8.75781 61.668 8.76953 61.4492 8.77734C61.2305 8.77734 61.0508 8.78125 60.9102 8.78906C60.7461 8.79688 60.6055 8.80469 60.4883 8.8125C60.3711 8.8125 60.2305 8.82031 60.0664 8.83594C59.9258 8.85156 59.7422 8.86719 59.5156 8.88281C59.2969 8.89844 59.0391 8.91406 58.7422 8.92969C58.8984 8.82031 59.0234 8.72266 59.1172 8.63672C59.2188 8.54297 59.2969 8.46484 59.3516 8.40234C59.4141 8.32422 59.457 8.25391 59.4805 8.19141C59.4961 8.12109 59.5078 8.01562 59.5156 7.875C59.5234 7.75 59.5234 7.58594 59.5156 7.38281C59.5078 7.17188 59.4883 6.89844 59.457 6.5625L56.375 6.87891C56.2969 7.01172 56.2383 7.12891 56.1992 7.23047C56.1602 7.32422 56.1328 7.40625 56.1172 7.47656C56.0938 7.5625 56.0859 7.63281 56.0938 7.6875C56.1094 7.75 56.1367 7.82422 56.1758 7.91016C56.2148 7.98828 56.2695 8.08203 56.3398 8.19141C56.418 8.29297 56.5312 8.41406 56.6797 8.55469C56.4844 8.54688 56.2852 8.54297 56.082 8.54297C55.8789 8.54297 55.6914 8.54688 55.5195 8.55469C55.3164 8.5625 55.1172 8.57031 54.9219 8.57812C54.7266 8.58594 54.5039 8.59766 54.2539 8.61328C54.043 8.62891 53.7969 8.64844 53.5156 8.67188C53.2266 8.6875 52.918 8.71094 52.5898 8.74219C52.793 8.64844 52.9648 8.55469 53.1055 8.46094C53.2461 8.35938 53.3633 8.26562 53.457 8.17969C53.5664 8.08594 53.6602 7.99609 53.7383 7.91016C53.793 7.83203 53.9023 7.65234 54.0664 7.37109C54.2305 7.08203 54.4141 6.74219 54.6172 6.35156C54.8281 5.96094 55.0469 5.54297 55.2734 5.09766C55.5078 4.65234 55.7188 4.23438 55.9062 3.84375C56.0938 3.44531 56.2461 3.10156 56.3633 2.8125C56.4805 2.52344 56.5391 2.33594 56.5391 2.25C56.5234 2.14844 56.4844 2.03516 56.4219 1.91016C56.3672 1.80078 56.2812 1.67578 56.1641 1.53516C56.0547 1.39453 55.8945 1.23828 55.6836 1.06641ZM59.3164 5.69531C59.2695 5.42188 59.2266 5.1875 59.1875 4.99219C59.1484 4.78906 59.1172 4.62109 59.0938 4.48828C59.0625 4.33203 59.0391 4.19531 59.0234 4.07812C59 3.96875 58.9727 3.82812 58.9414 3.65625C58.9102 3.50781 58.8711 3.32422 58.8242 3.10547C58.7852 2.87891 58.7344 2.60938 58.6719 2.29688C58.2266 3.1875 57.8789 3.87891 57.6289 4.37109C57.3867 4.85547 57.2109 5.21094 57.1016 5.4375C56.9688 5.70312 56.8945 5.85938 56.8789 5.90625L59.3164 5.69531ZM60.4883 0.585938C61.0117 0.609375 61.418 0.621094 61.707 0.621094H62.1406C62.2656 0.621094 62.4219 0.617187 62.6094 0.609375C62.7656 0.601563 62.9648 0.597656 63.207 0.597656C63.4492 0.589844 63.7383 0.578125 64.0742 0.5625C63.918 0.671875 63.793 0.777344 63.6992 0.878906C63.6055 0.980469 63.5312 1.07031 63.4766 1.14844C63.4141 1.24219 63.3711 1.32812 63.3477 1.40625C63.293 1.60938 63.2695 1.88672 63.2773 2.23828C63.293 2.58203 63.3281 2.95703 63.3828 3.36328C63.4375 3.76172 63.5039 4.16797 63.582 4.58203C63.6602 4.99609 63.7383 5.37109 63.8164 5.70703C63.9023 6.04297 63.9766 6.32031 64.0391 6.53906C64.1094 6.75 64.1602 6.85547 64.1914 6.85547C64.2227 6.85547 64.2812 6.74219 64.3672 6.51562C64.4609 6.28906 64.5664 6.00391 64.6836 5.66016C64.8008 5.30859 64.9219 4.92969 65.0469 4.52344C65.1719 4.10938 65.2852 3.71875 65.3867 3.35156C65.4961 2.97656 65.5859 2.65625 65.6562 2.39062C65.7266 2.11719 65.7617 1.94922 65.7617 1.88672C65.7539 1.80078 65.7266 1.71094 65.6797 1.61719C65.6406 1.53125 65.5703 1.43359 65.4688 1.32422C65.375 1.20703 65.2422 1.07422 65.0703 0.925781C65.3125 0.917969 65.5195 0.910156 65.6914 0.902344C65.8711 0.894531 66.0234 0.890625 66.1484 0.890625H66.5117H68.3867C68.1914 1.02344 68.0234 1.15234 67.8828 1.27734C67.75 1.40234 67.6406 1.51953 67.5547 1.62891C67.4531 1.75391 67.3672 1.87109 67.2969 1.98047C67.2188 2.14453 67.0898 2.5 66.9102 3.04688C66.832 3.28125 66.7422 3.56641 66.6406 3.90234C66.5391 4.23828 66.418 4.64062 66.2773 5.10938C66.1367 5.57812 65.9805 6.12109 65.8086 6.73828C65.6367 7.34766 65.4414 8.04297 65.2227 8.82422L63.5938 9.03516C63.3984 8.42578 63.2266 7.87109 63.0781 7.37109C62.9375 6.86328 62.8125 6.42969 62.7031 6.07031C62.5781 5.64844 62.4727 5.26953 62.3867 4.93359C62.2695 4.52734 62.168 4.11719 62.082 3.70312C62.0039 3.28125 61.9336 2.90234 61.8711 2.56641C61.8164 2.22266 61.7656 1.9375 61.7188 1.71094C61.6719 1.48438 61.6211 1.35156 61.5664 1.3125C61.5195 1.27344 61.4492 1.22266 61.3555 1.16016C61.2695 1.10547 61.1602 1.03516 61.0273 0.949219C60.8867 0.855469 60.707 0.734375 60.4883 0.585938ZM66.8867 0.996094C67.4336 1.01172 67.8867 1.02344 68.2461 1.03125C68.6133 1.03125 68.9102 1.03125 69.1367 1.03125H69.7578H73.25C73.2656 1.1875 73.2773 1.33984 73.2852 1.48828C73.3008 1.62891 73.3086 1.75391 73.3086 1.86328C73.3086 1.99609 73.3047 2.11719 73.2969 2.22656C73.2891 2.33594 73.2773 2.45312 73.2617 2.57812C73.2461 2.6875 73.2305 2.80469 73.2148 2.92969C73.1992 3.05469 73.1719 3.18359 73.1328 3.31641C73.0234 2.89453 72.875 2.57422 72.6875 2.35547C72.5078 2.13672 72.3242 1.97656 72.1367 1.875C71.918 1.75781 71.6875 1.69531 71.4453 1.6875C71.125 1.70312 70.875 1.73047 70.6953 1.76953C70.5156 1.80859 70.375 1.86328 70.2734 1.93359C70.1719 2.00391 70.0938 2.08594 70.0391 2.17969C69.9922 2.26562 69.9414 2.36328 69.8867 2.47266C69.8398 2.56641 69.7969 2.71094 69.7578 2.90625C69.7188 3.07031 69.6797 3.29297 69.6406 3.57422C69.6094 3.85547 69.5742 4.21875 69.5352 4.66406C69.7461 4.60156 69.9141 4.54297 70.0391 4.48828C70.1719 4.43359 70.2773 4.38672 70.3555 4.34766C70.4414 4.30078 70.5039 4.25781 70.543 4.21875C70.5742 4.17188 70.6211 4.08594 70.6836 3.96094C70.7305 3.85156 70.793 3.70312 70.8711 3.51562C70.957 3.32812 71.0586 3.07031 71.1758 2.74219C71.1914 3.10156 71.1992 3.40234 71.1992 3.64453C71.1992 3.87891 71.2031 4.07031 71.2109 4.21875C71.2109 4.39062 71.2148 4.52734 71.2227 4.62891V5.07422C71.2227 5.23828 71.2227 5.46094 71.2227 5.74219C71.2305 6.01562 71.2422 6.36328 71.2578 6.78516C71.1641 6.49609 71.0781 6.26953 71 6.10547C70.9297 5.93359 70.8672 5.80469 70.8125 5.71875C70.75 5.61719 70.6953 5.54688 70.6484 5.50781C70.5938 5.49219 70.5195 5.47656 70.4258 5.46094C70.3398 5.45312 70.2305 5.44922 70.0977 5.44922C69.9727 5.44922 69.8125 5.46875 69.6172 5.50781C69.5938 5.9375 69.5898 6.28516 69.6055 6.55078C69.6289 6.80859 69.6602 7.00781 69.6992 7.14844C69.7383 7.3125 69.7852 7.42969 69.8398 7.5C69.9102 7.57031 70.0508 7.62891 70.2617 7.67578C70.4727 7.71484 70.7109 7.73047 70.9766 7.72266C71.25 7.70703 71.5273 7.66016 71.8086 7.58203C72.0898 7.50391 72.3398 7.375 72.5586 7.19531C72.7227 7.04688 72.8984 6.85938 73.0859 6.63281C73.2422 6.4375 73.4141 6.19141 73.6016 5.89453C73.7969 5.59766 73.9883 5.23828 74.1758 4.81641C74.1445 5.16797 74.1211 5.46094 74.1055 5.69531C74.0977 5.92188 74.0859 6.10547 74.0703 6.24609C74.0547 6.41016 74.043 6.53516 74.0352 6.62109C74.0352 6.71484 74.0234 6.84766 74 7.01953C73.9844 7.16797 73.957 7.37109 73.918 7.62891C73.8867 7.87891 73.8438 8.19922 73.7891 8.58984C73.4219 8.59766 73.0742 8.60547 72.7461 8.61328C72.418 8.61328 72.1289 8.61719 71.8789 8.625C71.582 8.63281 71.3086 8.64062 71.0586 8.64844C70.8008 8.64844 70.5156 8.66016 70.2031 8.68359C69.9297 8.69922 69.6055 8.72266 69.2305 8.75391C68.8633 8.78516 68.457 8.82812 68.0117 8.88281C68.0508 8.35156 68.0781 7.85156 68.0938 7.38281C68.1172 6.90625 68.1328 6.48828 68.1406 6.12891C68.1484 5.70703 68.1484 5.31641 68.1406 4.95703C68.1797 4.05859 68.1641 3.33203 68.0938 2.77734C68.0234 2.22266 67.9414 1.86719 67.8477 1.71094C67.8008 1.65625 67.7344 1.58984 67.6484 1.51172C67.5781 1.44922 67.4805 1.375 67.3555 1.28906C67.2305 1.20312 67.0742 1.10547 66.8867 0.996094ZM74 0.691406C74.3516 0.753906 74.6406 0.796875 74.8672 0.820312C75.0938 0.84375 75.2773 0.863281 75.418 0.878906C75.582 0.894531 75.7109 0.898437 75.8047 0.890625H76.1562C76.2812 0.890625 76.4375 0.890625 76.625 0.890625C76.8203 0.882813 77.0625 0.878906 77.3516 0.878906C77.5156 1.26172 77.6641 1.61328 77.7969 1.93359C77.9375 2.25391 78.0547 2.52734 78.1484 2.75391C78.2578 3.02734 78.3594 3.27344 78.4531 3.49219C78.5625 3.76562 78.6797 4.06641 78.8047 4.39453C78.9297 4.72266 79.043 5.03125 79.1445 5.32031C79.2539 5.60938 79.3438 5.84766 79.4141 6.03516C79.4844 6.22266 79.5195 6.30859 79.5195 6.29297C79.5195 6.28516 79.5234 6.20703 79.5312 6.05859C79.5391 5.90234 79.5469 5.71094 79.5547 5.48438C79.5625 5.25 79.5703 4.99609 79.5781 4.72266C79.5938 4.44141 79.6016 4.17188 79.6016 3.91406C79.6094 3.64844 79.6133 3.40625 79.6133 3.1875C79.6133 2.96875 79.6055 2.80469 79.5898 2.69531C79.5664 2.5625 79.5195 2.41016 79.4492 2.23828C79.3867 2.08984 79.3008 1.91406 79.1914 1.71094C79.082 1.5 78.9297 1.26172 78.7344 0.996094C79.0547 1.00391 79.3164 1.00781 79.5195 1.00781C79.7227 1.00781 79.8867 1.00781 80.0117 1.00781C80.1523 1.00781 80.2617 1.00391 80.3398 0.996094C80.4414 0.996094 80.5664 0.988281 80.7148 0.972656C80.8477 0.957031 81.0117 0.945312 81.207 0.9375C81.4102 0.921875 81.6602 0.902344 81.957 0.878906C81.7852 1.03516 81.6484 1.18359 81.5469 1.32422C81.4453 1.46484 81.3633 1.58984 81.3008 1.69922C81.2305 1.82422 81.1836 1.94141 81.1602 2.05078C81.1289 2.19141 81.1016 2.42188 81.0781 2.74219C81.0625 3.05469 81.043 3.40625 81.0195 3.79688C81.0039 4.1875 80.9883 4.59375 80.9727 5.01562C80.957 5.4375 80.9414 5.82422 80.9258 6.17578C80.9258 6.44141 80.918 6.72656 80.9023 7.03125C80.8867 7.28906 80.8711 7.58203 80.8555 7.91016C80.8398 8.23047 80.8203 8.55469 80.7969 8.88281L79.7539 8.90625C79.4492 8.36719 79.1914 7.90625 78.9805 7.52344C78.7773 7.13281 78.6094 6.8125 78.4766 6.5625C78.3281 6.27344 78.2031 6.03125 78.1016 5.83594C78.0156 5.64844 77.9023 5.43359 77.7617 5.19141C77.6445 4.98828 77.4961 4.73828 77.3164 4.44141C77.1445 4.14453 76.9375 3.80469 76.6953 3.42188C76.6719 3.96094 76.6602 4.42188 76.6602 4.80469C76.668 5.17969 76.6797 5.49219 76.6953 5.74219C76.7188 6.03125 76.7461 6.27344 76.7773 6.46875C76.8164 6.65625 76.8711 6.86719 76.9414 7.10156C77.0039 7.30469 77.0781 7.54297 77.1641 7.81641C77.2578 8.08984 77.3711 8.39844 77.5039 8.74219C77.043 8.71875 76.6992 8.70703 76.4727 8.70703H76.1211C76.0117 8.70703 75.8633 8.71875 75.6758 8.74219C75.5195 8.75781 75.3047 8.78125 75.0312 8.8125C74.7656 8.84375 74.4336 8.88672 74.0352 8.94141C74.2227 8.71484 74.3711 8.50781 74.4805 8.32031C74.5977 8.125 74.6875 7.96094 74.75 7.82812C74.8281 7.67188 74.8828 7.53516 74.9141 7.41797C74.9375 7.29297 74.9531 7.07812 74.9609 6.77344C74.9688 6.46094 74.9688 6.10938 74.9609 5.71875C74.9609 5.32031 74.9531 4.90234 74.9375 4.46484C74.9297 4.02734 74.918 3.62109 74.9023 3.24609C74.8867 2.87109 74.8672 2.55078 74.8438 2.28516C74.8281 2.01953 74.8164 1.85547 74.8086 1.79297C74.7852 1.69141 74.7383 1.58203 74.668 1.46484C74.6055 1.36328 74.5234 1.25 74.4219 1.125C74.3203 0.992187 74.1797 0.847656 74 0.691406ZM81.8984 0.925781C82.1641 0.957031 82.3867 0.980469 82.5664 0.996094C82.7539 1.00391 82.9062 1.01562 83.0234 1.03125C83.1641 1.04688 83.2734 1.05469 83.3516 1.05469C83.4375 1.0625 83.5664 1.05859 83.7383 1.04297C83.8867 1.02734 84.0859 1.00781 84.3359 0.984375C84.5938 0.960938 84.9219 0.925781 85.3203 0.878906C85.1406 1.03516 84.9961 1.1875 84.8867 1.33594C84.7852 1.47656 84.707 1.60156 84.6523 1.71094C84.582 1.84375 84.5391 1.96875 84.5234 2.08594C84.4922 2.27344 84.4648 2.53125 84.4414 2.85938C84.4258 3.17969 84.4102 3.53125 84.3945 3.91406C84.3789 4.29688 84.3711 4.69141 84.3711 5.09766C84.3711 5.50391 84.375 5.89062 84.3828 6.25781C84.3984 6.61719 84.4219 6.9375 84.4531 7.21875C84.4922 7.5 84.5391 7.70312 84.5938 7.82812C84.6719 7.96875 84.7539 8.10938 84.8398 8.25C84.918 8.36719 85.0117 8.48828 85.1211 8.61328C85.2305 8.73828 85.3555 8.83984 85.4961 8.91797C85.0352 8.89453 84.668 8.88281 84.3945 8.88281H83.9727C83.8477 8.88281 83.6875 8.89062 83.4922 8.90625C83.3281 8.92188 83.1211 8.9375 82.8711 8.95312C82.6211 8.96875 82.3203 8.99219 81.9688 9.02344C82.1484 8.82812 82.2891 8.64062 82.3906 8.46094C82.4922 8.28125 82.5742 8.125 82.6367 7.99219C82.707 7.83594 82.7539 7.6875 82.7773 7.54688C82.8086 7.34375 82.832 7.09375 82.8477 6.79688C82.8711 6.49219 82.8867 6.16797 82.8945 5.82422C82.9023 5.47266 82.9023 5.11719 82.8945 4.75781C82.8945 4.39062 82.8867 4.03906 82.8711 3.70312C82.8555 3.36719 82.832 3.0625 82.8008 2.78906C82.7773 2.51562 82.7461 2.29688 82.707 2.13281C82.6836 2.03125 82.6367 1.91797 82.5664 1.79297C82.5039 1.68359 82.418 1.55859 82.3086 1.41797C82.207 1.26953 82.0703 1.10547 81.8984 0.925781ZM85.1328 0.445312C85.3828 0.484375 85.6094 0.519531 85.8125 0.550781C86.0156 0.574219 86.1914 0.59375 86.3398 0.609375C86.5117 0.632812 86.6641 0.652344 86.7969 0.667969C86.9609 0.691406 87.207 0.664062 87.5352 0.585938C87.8633 0.5 88.2227 0.421875 88.6133 0.351562C89.0117 0.273438 89.418 0.230469 89.832 0.222656C90.2461 0.207031 90.625 0.28125 90.9688 0.445312C91.3125 0.609375 91.5938 0.773438 91.8125 0.9375C92.0312 1.10156 92.2031 1.27734 92.3281 1.46484C92.4609 1.64453 92.5547 1.83594 92.6094 2.03906C92.6641 2.24219 92.6953 2.46484 92.7031 2.70703C92.6953 3.06641 92.6094 3.41406 92.4453 3.75C92.375 3.89062 92.2812 4.03906 92.1641 4.19531C92.0547 4.34375 91.918 4.48828 91.7539 4.62891C91.5898 4.76953 91.3945 4.90234 91.168 5.02734C90.9492 5.15234 90.6914 5.26172 90.3945 5.35547C90.6836 5.44141 90.9219 5.54297 91.1094 5.66016C91.3047 5.77734 91.4609 5.88672 91.5781 5.98828C91.7188 6.11328 91.8242 6.23438 91.8945 6.35156C91.9805 6.51562 92.0391 6.65625 92.0703 6.77344C92.1016 6.89062 92.1211 7.00391 92.1289 7.11328C92.1445 7.21484 92.1641 7.32031 92.1875 7.42969C92.2109 7.53906 92.2617 7.66406 92.3398 7.80469C92.4023 7.91406 92.4766 8.02734 92.5625 8.14453C92.6406 8.24609 92.7305 8.35547 92.832 8.47266C92.9414 8.58984 93.0742 8.70312 93.2305 8.8125C93.0117 8.82031 92.8086 8.82422 92.6211 8.82422C92.4414 8.82422 92.2852 8.82422 92.1523 8.82422C91.9961 8.82422 91.8477 8.82031 91.707 8.8125C91.5664 8.80469 91.3906 8.80078 91.1797 8.80078C91 8.80078 90.7695 8.80078 90.4883 8.80078C90.2148 8.80078 89.8828 8.80469 89.4922 8.8125C89.6641 8.67969 89.8047 8.54688 89.9141 8.41406C90.0234 8.28125 90.1094 8.16016 90.1719 8.05078C90.2422 7.92578 90.293 7.80469 90.3242 7.6875C90.3633 7.47656 90.3672 7.25781 90.3359 7.03125C90.3125 6.83594 90.25 6.62109 90.1484 6.38672C90.0469 6.14453 89.8828 5.90234 89.6562 5.66016C89.4297 5.69922 89.2383 5.73047 89.082 5.75391C88.9336 5.76953 88.8047 5.78516 88.6953 5.80078C88.5703 5.81641 88.4688 5.82812 88.3906 5.83594C88.3203 5.84375 88.2422 5.85156 88.1562 5.85938C88.0859 5.86719 88.0078 5.87891 87.9219 5.89453C87.8438 5.90234 87.7695 5.91406 87.6992 5.92969C87.6836 6.26562 87.6836 6.55859 87.6992 6.80859C87.7148 7.05078 87.7344 7.25391 87.7578 7.41797C87.7891 7.61328 87.8242 7.78125 87.8633 7.92188C87.9023 8.0625 87.957 8.19922 88.0273 8.33203C88.082 8.44141 88.1523 8.55859 88.2383 8.68359C88.3242 8.80078 88.4219 8.89844 88.5312 8.97656C88.3281 8.97656 88.1328 8.97656 87.9453 8.97656C87.7656 8.97656 87.6016 8.97266 87.4531 8.96484C87.2812 8.96484 87.1172 8.96094 86.9609 8.95312C86.8047 8.94531 86.6289 8.94141 86.4336 8.94141C86.2695 8.94141 86.0742 8.94141 85.8477 8.94141C85.6289 8.94141 85.3906 8.94531 85.1328 8.95312C85.3359 8.74219 85.4961 8.5625 85.6133 8.41406C85.7305 8.26562 85.8203 8.14062 85.8828 8.03906C85.9531 7.92969 85.9961 7.83594 86.0117 7.75781C86.0273 7.63281 86.0391 7.41016 86.0469 7.08984C86.0625 6.76172 86.0742 6.38672 86.082 5.96484C86.0898 5.54297 86.0938 5.10156 86.0938 4.64062C86.0938 4.17969 86.0898 3.75 86.082 3.35156C86.0742 2.94531 86.0664 2.59766 86.0586 2.30859C86.0508 2.01953 86.043 1.83594 86.0352 1.75781C86.0117 1.61719 85.9609 1.47656 85.8828 1.33594C85.8203 1.21094 85.7305 1.07031 85.6133 0.914062C85.4961 0.757812 85.3359 0.601563 85.1328 0.445312ZM89.5625 4.57031C89.6406 4.52344 89.707 4.47656 89.7617 4.42969C89.8164 4.38281 89.8633 4.30859 89.9023 4.20703C89.9414 4.09766 89.9727 3.94531 89.9961 3.75C90.0273 3.55469 90.0625 3.28906 90.1016 2.95312C90.1328 2.61719 90.1094 2.33984 90.0312 2.12109C89.9609 1.90234 89.8633 1.73047 89.7383 1.60547C89.6211 1.47266 89.4883 1.38281 89.3398 1.33594C89.1992 1.28125 89.0742 1.25391 88.9648 1.25391C88.7461 1.25391 88.5312 1.32031 88.3203 1.45312C88.1094 1.58594 87.9492 1.76562 87.8398 1.99219C87.8008 2.09375 87.7656 2.26172 87.7344 2.49609C87.7109 2.69922 87.6953 2.98047 87.6875 3.33984C87.6797 3.69922 87.6914 4.17188 87.7227 4.75781C88.0195 4.80469 88.2812 4.82422 88.5078 4.81641C88.7344 4.80078 88.9258 4.77344 89.082 4.73438C89.2695 4.69531 89.4297 4.64062 89.5625 4.57031Z" fill="white"/>
</svg>
